<svg width="293" height="158" viewBox="0 0 293 158" fill="none" xmlns="http://www.w3.org/2000/svg">
<path d="M0.69873 43.36H8.85873C8.85873 48.032 10.2987 51.936 13.1787 55.072C16.1227 58.144 20.4427 59.68 26.1387 59.68C32.0267 59.68 36.2827 58.368 38.9067 55.744C41.5947 53.056 42.9387 49.888 42.9387 46.24C42.9387 42.656 41.6587 39.936 39.0987 38.08C36.5387 36.16 32.0587 35.2 25.6587 35.2C9.65873 35.2 1.65873 29.6 1.65873 18.4C1.65873 13.024 3.83473 8.64 8.18673 5.248C12.6027 1.856 18.5867 0.160004 26.1387 0.160004C30.4907 0.160004 34.2667 0.736004 37.4667 1.888C40.6667 3.04 43.0987 4.576 44.7627 6.496C46.4907 8.416 47.7387 10.4 48.5067 12.448C49.2747 14.496 49.6587 16.64 49.6587 18.88H41.4987C41.4987 15.488 40.2507 12.48 37.7547 9.856C35.2587 7.232 31.3867 5.92 26.1387 5.92C21.3387 5.92 17.4987 6.976 14.6187 9.088C11.7387 11.136 10.2987 14.24 10.2987 18.4C10.2987 21.664 11.6747 24.256 14.4267 26.176C17.1787 28.032 21.2427 28.96 26.6187 28.96C35.6427 28.96 42.0427 30.304 45.8187 32.992C49.6587 35.68 51.5787 39.776 51.5787 45.28C51.5787 51.104 49.4027 55.936 45.0507 59.776C40.6987 63.552 34.3947 65.44 26.1387 65.44C17.5627 65.44 11.1627 63.36 6.93873 59.2C2.77873 54.976 0.69873 49.696 0.69873 43.36Z" fill="#93ABBD"/>
<path d="M52.625 16H61.745L77.681 55.456L91.985 16H100.625L80.945 66.4C79.153 70.944 77.265 74.144 75.281 76C73.297 77.92 70.385 78.88 66.545 78.88L60.305 78.4V72.352C62.225 72.544 63.825 72.64 65.105 72.64C68.625 72.64 71.185 70.56 72.785 66.4L73.745 64L52.625 16Z" fill="#93ABBD"/>
<path d="M134.272 54.496C137.088 51.04 138.496 46.208 138.496 40C138.496 33.792 137.088 28.96 134.272 25.504C131.456 22.048 127.904 20.32 123.616 20.32C119.2 20.32 115.616 21.952 112.864 25.216C110.112 28.48 108.736 33.408 108.736 40C108.736 46.592 110.112 51.52 112.864 54.784C115.616 58.048 119.2 59.68 123.616 59.68C127.904 59.68 131.456 57.952 134.272 54.496ZM146.656 64H138.496V55.36C138.368 55.616 138.176 55.968 137.92 56.416C137.664 56.864 137.056 57.696 136.096 58.912C135.136 60.064 134.08 61.088 132.928 61.984C131.776 62.816 130.24 63.584 128.32 64.288C126.4 65.056 124.352 65.44 122.176 65.44C114.944 65.44 109.44 63.04 105.664 58.24C101.952 53.376 100.096 47.296 100.096 40C100.096 32.704 101.952 26.656 105.664 21.856C109.44 16.992 114.944 14.56 122.176 14.56C124.352 14.56 126.368 14.912 128.224 15.616C130.144 16.32 131.712 17.152 132.928 18.112C134.144 19.072 135.168 20.064 136 21.088C136.896 22.048 137.536 22.88 137.92 23.584L138.496 24.64V1.6H146.656V64Z" fill="#93ABBD"/>
<path d="M161.529 64H153.369V16H161.529V24.64C161.721 24.384 161.977 24.032 162.297 23.584C162.617 23.136 163.321 22.336 164.409 21.184C165.497 19.968 166.649 18.944 167.865 18.112C169.081 17.216 170.617 16.416 172.473 15.712C174.393 14.944 176.345 14.56 178.329 14.56C183.321 14.56 187.289 16 190.233 18.88C193.177 21.696 194.649 25.856 194.649 31.36V64H186.489V33.28C186.489 29.12 185.529 26.016 183.609 23.968C181.753 21.856 179.193 20.8 175.929 20.8C171.833 20.8 168.409 22.24 165.657 25.12C162.905 28 161.529 32.16 161.529 37.6V64Z" fill="#93ABBD"/>
<path d="M245.529 41.92H209.049C209.305 47.872 210.809 52.32 213.561 55.264C216.313 58.208 219.769 59.68 223.929 59.68C227.193 59.68 229.977 58.816 232.281 57.088C234.649 55.36 236.185 52.864 236.889 49.6H245.049C244.025 54.336 241.689 58.176 238.041 61.12C234.457 64 229.753 65.44 223.929 65.44C216.377 65.44 210.553 63.04 206.457 58.24C202.425 53.44 200.409 47.36 200.409 40C200.409 32.64 202.393 26.56 206.361 21.76C210.393 16.96 216.089 14.56 223.449 14.56C230.809 14.56 236.313 16.864 239.961 21.472C243.673 26.08 245.529 31.616 245.529 38.08V41.92ZM233.049 24.352C230.553 21.664 227.353 20.32 223.449 20.32C219.545 20.32 216.313 21.632 213.753 24.256C211.257 26.88 209.753 30.848 209.241 36.16H236.889C236.889 30.912 235.609 26.976 233.049 24.352Z" fill="#93ABBD"/>
<path d="M245 16H254.12L270.056 55.456L284.36 16H293L273.32 66.4C271.528 70.944 269.64 74.144 267.656 76C265.672 77.92 262.76 78.88 258.92 78.88L252.68 78.4V72.352C254.6 72.544 256.2 72.64 257.48 72.64C261 72.64 263.56 70.56 265.16 66.4L266.12 64L245 16Z" fill="#93ABBD"/>
<path d="M57.7212 158H48.6012L31.8012 95.6H39.9612L53.4972 148.016L68.2812 95.6H75.9612L90.7452 148.016L104.281 95.6H112.441L95.6412 158H86.5212L72.1212 107.6L57.7212 158Z" fill="#93ABBD"/>
<path d="M162.324 151.76V158H116.244V95.6H162.324V101.84H124.404V122.96H155.604V129.2H124.404V151.76H162.324Z" fill="#93ABBD"/>
<path d="M176.247 122.96H196.407C199.927 122.96 202.711 122.064 204.759 120.272C206.871 118.416 207.927 115.632 207.927 111.92C207.927 105.2 204.087 101.84 196.407 101.84H176.247V122.96ZM196.407 158H168.087V95.6H196.407C209.527 95.6 216.087 100.88 216.087 111.44C216.087 113.616 215.703 115.568 214.935 117.296C214.231 119.024 213.367 120.368 212.343 121.328C211.319 122.288 210.295 123.088 209.271 123.728C208.247 124.368 207.351 124.784 206.583 124.976L205.527 125.36V125.84C205.847 125.904 206.295 126.032 206.871 126.224C207.447 126.352 208.439 126.8 209.847 127.568C211.319 128.272 212.599 129.136 213.687 130.16C214.775 131.12 215.767 132.56 216.663 134.48C217.559 136.336 218.007 138.416 218.007 140.72C218.007 152.24 210.807 158 196.407 158ZM196.407 129.2H176.247V151.76H196.407C200.439 151.76 203.607 150.864 205.911 149.072C208.215 147.216 209.367 144.432 209.367 140.72C209.367 137.008 208.151 134.16 205.719 132.176C203.287 130.192 200.183 129.2 196.407 129.2Z" fill="#93ABBD"/>
<path d="M280.925 158H272.765V142.16H241.085V136.88L271.325 95.6H280.925V135.92H291.965V142.16H280.925V158ZM248.957 135.92H272.765V103.472L248.957 135.92Z" fill="#93ABBD"/>
</svg>
