<svg width="281" height="90" viewBox="0 0 281 90" fill="none" xmlns="http://www.w3.org/2000/svg">
<path d="M21.024 11.328H8.544V0H21.024V11.328ZM39.84 11.328H27.36V0H39.84V11.328ZM13.344 48.576C13.344 49.056 13.44 49.632 13.536 50.4C13.536 51.264 13.728 52.032 14.016 52.992C14.304 53.856 14.784 54.816 15.264 55.68C15.744 56.64 16.512 57.504 17.472 58.176C18.336 58.944 19.392 59.616 20.736 60C21.984 60.48 23.52 60.768 25.344 60.768C26.304 60.768 27.264 60.576 28.128 60.288C29.088 60.096 29.856 59.712 30.72 59.136C31.488 58.656 32.16 57.984 32.736 57.312C33.312 56.544 33.696 55.776 33.984 54.816H47.712C47.712 55.776 47.52 56.832 47.136 57.984C46.656 59.232 46.08 60.384 45.312 61.632C44.448 62.88 43.392 64.128 42.144 65.28C40.896 66.432 39.456 67.584 37.632 68.448C35.904 69.408 33.984 70.08 31.872 70.656C29.664 71.232 27.264 71.52 24.576 71.52C21.216 71.52 17.952 71.04 15.072 69.984C12 69.024 9.408 67.392 7.2 65.184C4.992 62.976 3.168 60.096 1.92 56.64C0.672 53.088 0 48.864 0 43.872C0 40.416 0.48 37.056 1.44 33.888C2.304 30.624 3.744 27.84 5.664 25.44C7.584 22.944 10.176 21.024 13.248 19.584C16.224 18.048 19.872 17.376 24.192 17.376C28.704 17.376 32.544 18.144 35.616 19.584C38.688 21.12 41.184 23.232 43.104 25.92C45.024 28.608 46.368 31.968 47.136 35.808C47.904 39.648 48.384 43.872 48.384 48.576H13.344ZM34.56 39.744C34.56 37.536 34.272 35.616 33.6 34.08C32.928 32.64 32.064 31.392 31.104 30.528C30.048 29.664 28.896 28.992 27.648 28.608C26.496 28.32 25.344 28.128 24.192 28.128C23.136 28.128 21.888 28.32 20.736 28.608C19.488 28.992 18.336 29.664 17.376 30.528C16.32 31.392 15.456 32.64 14.88 34.08C14.112 35.616 13.824 37.536 13.824 39.744H34.56Z" fill="white"/>
<path d="M74.3677 18.912C76.7677 18.912 78.9757 19.104 81.1837 19.488C83.2957 19.968 85.2158 20.64 86.9437 21.6C88.5758 22.656 89.9197 24 90.8797 25.728C91.8397 27.456 92.3197 29.664 92.3197 32.352C92.3197 33.888 92.2237 35.232 91.8397 36.288C91.5518 37.44 91.0717 38.4 90.4957 39.168C89.9197 40.032 89.2477 40.704 88.5757 41.184C87.8077 41.76 87.1357 42.24 86.2717 42.624C88.8637 43.488 90.7837 44.928 92.1277 46.944C93.4717 48.96 94.1437 51.264 94.1437 54.048C94.1437 56.448 93.7598 58.656 92.9917 60.576C92.1277 62.496 90.9757 64.224 89.4398 65.568C87.9037 67.008 86.0798 68.064 83.8717 68.832C81.6637 69.6 79.2637 69.984 76.5757 69.984H47.9677V18.912H74.3677ZM71.3917 38.976C72.9277 38.976 74.1757 38.784 75.2317 38.592C76.1917 38.304 76.9597 38.016 77.5357 37.536C78.1117 37.152 78.5917 36.576 78.7837 35.904C79.0717 35.232 79.1677 34.368 79.1677 33.504C79.1677 32.736 79.0717 32.064 78.7837 31.392C78.5917 30.816 78.1117 30.24 77.5357 29.76C77.0557 29.376 76.2877 28.992 75.3277 28.704C74.3677 28.416 73.2157 28.32 71.7757 28.32H61.2157V38.976H71.3917ZM71.3917 60.576C73.3117 60.576 74.9437 60.384 76.0957 60C77.2477 59.52 78.1117 59.04 78.7837 58.368C79.3597 57.792 79.8397 57.12 80.0317 56.352C80.2237 55.584 80.3197 54.912 80.3197 54.24C80.3197 52.992 80.2237 51.936 79.8397 51.072C79.5517 50.304 79.0717 49.632 78.3037 49.152C77.6317 48.576 76.6717 48.288 75.5197 48.096C74.3677 47.904 73.0238 47.808 71.3917 47.808H61.2157V60.576H71.3917Z" fill="white"/>
<path d="M108.803 38.304L127.907 18.912H145.571L124.451 40.128L146.435 69.984H129.155L114.179 48.384L108.803 53.856V69.984H95.5553V18.912H108.803V38.304Z" fill="white"/>
<path d="M153.763 48.576C153.763 49.056 153.859 49.632 153.955 50.4C153.955 51.264 154.147 52.032 154.435 52.992C154.723 53.856 155.203 54.816 155.683 55.68C156.163 56.64 156.931 57.504 157.891 58.176C158.755 58.944 159.811 59.616 161.155 60C162.403 60.48 163.939 60.768 165.763 60.768C166.723 60.768 167.683 60.576 168.547 60.288C169.507 60.096 170.275 59.712 171.139 59.136C171.907 58.656 172.579 57.984 173.155 57.312C173.731 56.544 174.115 55.776 174.403 54.816H188.131C188.131 55.776 187.939 56.832 187.555 57.984C187.075 59.232 186.499 60.384 185.731 61.632C184.867 62.88 183.811 64.128 182.563 65.28C181.315 66.432 179.875 67.584 178.051 68.448C176.323 69.408 174.403 70.08 172.291 70.656C170.083 71.232 167.683 71.52 164.995 71.52C161.635 71.52 158.371 71.04 155.491 69.984C152.419 69.024 149.827 67.392 147.619 65.184C145.411 62.976 143.587 60.096 142.339 56.64C141.091 53.088 140.419 48.864 140.419 43.872C140.419 40.416 140.899 37.056 141.859 33.888C142.723 30.624 144.163 27.84 146.083 25.44C148.003 22.944 150.595 21.024 153.667 19.584C156.643 18.048 160.291 17.376 164.611 17.376C169.123 17.376 172.963 18.144 176.035 19.584C179.107 21.12 181.603 23.232 183.523 25.92C185.443 28.608 186.787 31.968 187.555 35.808C188.323 39.648 188.803 43.872 188.803 48.576H153.763ZM174.979 39.744C174.979 37.536 174.691 35.616 174.019 34.08C173.347 32.64 172.483 31.392 171.523 30.528C170.467 29.664 169.315 28.992 168.067 28.608C166.915 28.32 165.763 28.128 164.611 28.128C163.555 28.128 162.307 28.32 161.155 28.608C159.907 28.992 158.755 29.664 157.795 30.528C156.739 31.392 155.875 32.64 155.299 34.08C154.531 35.616 154.243 37.536 154.243 39.744H174.979Z" fill="white"/>
<path d="M200.291 26.208H200.483C201.347 24.672 202.307 23.328 203.363 22.176C204.323 21.12 205.475 20.16 206.627 19.488C207.875 18.816 209.219 18.24 210.755 17.952C212.195 17.568 213.827 17.376 215.747 17.376C217.283 17.376 218.915 17.568 220.547 17.952C222.179 18.336 223.811 18.912 225.443 19.776C226.979 20.544 228.515 21.696 229.859 22.944C231.299 24.288 232.547 26.016 233.603 27.936C234.659 29.856 235.523 32.064 236.099 34.656C236.771 37.248 237.059 40.128 237.059 43.488C237.059 47.616 236.674 51.456 235.715 54.816C234.851 58.272 233.507 61.248 231.683 63.744C229.859 66.144 227.651 68.064 224.963 69.504C222.179 70.848 219.011 71.52 215.267 71.52C214.019 71.52 212.675 71.424 211.427 71.136C210.083 70.944 208.835 70.464 207.587 69.888C206.243 69.312 205.09 68.448 204.035 67.488C202.883 66.432 201.923 65.184 201.059 63.648H200.867V89.76H187.618V18.912H200.291V26.208ZM211.811 29.28C209.699 29.28 207.875 29.76 206.435 30.624C204.995 31.584 203.842 32.736 202.979 34.176C202.018 35.616 201.443 37.248 200.963 39.072C200.579 40.896 200.387 42.624 200.387 44.448C200.387 45.408 200.387 46.464 200.579 47.616C200.674 48.768 200.867 49.92 201.155 51.072C201.539 52.224 201.923 53.376 202.499 54.432C202.979 55.584 203.651 56.544 204.515 57.408C205.379 58.176 206.435 58.848 207.587 59.424C208.738 59.904 210.178 60.192 211.811 60.192C213.443 60.192 214.883 59.904 216.035 59.424C217.186 58.848 218.243 58.176 219.107 57.408C219.875 56.544 220.643 55.584 221.219 54.432C221.699 53.376 222.083 52.224 222.467 51.072C222.755 49.92 222.947 48.768 223.139 47.616C223.235 46.464 223.235 45.408 223.235 44.448C223.235 42.624 223.043 40.896 222.659 39.072C222.179 37.248 221.603 35.616 220.739 34.176C219.779 32.736 218.627 31.584 217.187 30.624C215.651 29.76 213.923 29.28 211.811 29.28Z" fill="white"/>
<path d="M267.042 36.96C266.754 35.616 266.466 34.368 265.986 33.408C265.602 32.352 265.026 31.488 264.354 30.816C263.586 30.048 262.722 29.568 261.762 29.184C260.706 28.896 259.458 28.704 258.018 28.704C255.81 28.704 254.082 29.184 252.738 30.24C251.394 31.296 250.338 32.544 249.666 34.08C248.898 35.712 248.514 37.44 248.226 39.264C248.034 41.088 247.842 42.816 247.842 44.448C247.842 46.08 247.938 47.904 248.13 49.728C248.322 51.648 248.706 53.28 249.474 54.816C250.146 56.352 251.106 57.696 252.546 58.656C253.89 59.712 255.714 60.192 258.018 60.192C259.554 60.192 260.898 59.904 262.05 59.232C263.106 58.656 264.066 57.888 264.834 57.024C265.602 56.064 266.178 55.104 266.562 54.048C266.85 53.088 267.042 52.128 267.042 51.264H280.866C280.866 52.128 280.77 53.184 280.482 54.528C280.098 55.968 279.618 57.312 278.946 58.848C278.274 60.288 277.314 61.824 276.258 63.36C275.01 64.896 273.666 66.24 271.938 67.392C270.21 68.64 268.29 69.6 265.986 70.368C263.682 71.136 260.994 71.52 258.018 71.52C254.178 71.52 250.722 70.944 247.746 69.792C244.77 68.544 242.274 66.816 240.258 64.512C238.242 62.208 236.706 59.424 235.65 55.968C234.594 52.608 234.018 48.768 234.018 44.448C234.018 40.032 234.594 36.192 235.746 32.832C236.898 29.568 238.53 26.688 240.642 24.384C242.754 22.08 245.25 20.352 248.226 19.2C251.106 17.952 254.466 17.376 258.018 17.376C259.554 17.376 261.186 17.568 262.914 17.76C264.546 17.952 266.178 18.432 267.81 19.008C269.442 19.68 270.978 20.448 272.514 21.408C273.954 22.368 275.298 23.616 276.546 25.056C277.698 26.496 278.658 28.224 279.426 30.144C280.194 32.064 280.674 34.368 280.866 36.96H267.042Z" fill="white"/>
</svg>
